# xmcd
#
# Track frame offsets:
#   183
#   10265
#   20880
#   31863
#   43840
#   55263
#   65615
#   75165
#   83273
#   93455
#   105978
#   113688
#   123618
#   133733
#   143558
#   154380
#
# Disc length: 2228 seconds
#
# Revision: 4
# Processed by: cddbd v1.5.1PL0 Copyright (c) Steve Scherf et al.
# Submitted via: Media_Universe 3.0
#
DISCID=c708b210
DTITLE=Johnny Cash - Ballad Of A Teenage Queen
DYEAR=1989
DGENRE=Country
TTITLE0=I Could Never Be Ashamed Of You
TTITLE1=Cold Cold Heart
TTITLE2=I Love You Because
TTITLE3=You're The Nearest Thing
TTITLE4=Big River
TTITLE5=There You Go
TTITLE6=Just About Time
TTITLE7=Sugar Time
TTITLE8=Straight As In Love
TTITLE9=Next In Line
TTITLE10=Hey Good Lookin'
TTITLE11=Ballad Of A Teenage Queen
TTITLE12=Goodbye Little Darling Goodbye
TTITLE13=Rock Island Line
TTITLE14=I Just Thought You'd Like To Know
TTITLE15=Folsom Prison Blues
EXTD=
EXTT0=
EXTT1=
EXTT2=
EXTT3=
EXTT4=
EXTT5=
EXTT6=
EXTT7=
EXTT8=
EXTT9=
EXTT10=
EXTT11=
EXTT12=
EXTT13=
EXTT14=
EXTT15=
PLAYORDER=
